<svg xmlns="http://www.w3.org/2000/svg" xmlns:xlink="http://www.w3.org/1999/xlink" width="500" zoomAndPan="magnify" viewBox="0 0 375 374.999991" height="500" preserveAspectRatio="xMidYMid meet" version="1.0"><defs><g/><clipPath id="bf8eb45ff0"><path d="M 275 194.242188 L 287.867188 194.242188 L 287.867188 207 L 275 207 Z M 275 194.242188 " clip-rule="nonzero"/></clipPath><clipPath id="40f4c40266"><path d="M 137.867188 211 L 287.867188 211 L 287.867188 245 L 137.867188 245 Z M 137.867188 211 " clip-rule="nonzero"/></clipPath></defs><g fill="#e4e2dd" fill-opacity="1"><g transform="translate(128.131641, 113.092053)"><g><path d="M 28.984375 -4.625 C 28.984375 -3.457031 29.390625 -2.394531 30.203125 -1.4375 C 31.023438 -0.476562 32.019531 0 33.1875 0 L 12.390625 0 C 13.597656 0 14.597656 -0.476562 15.390625 -1.4375 C 16.191406 -2.394531 16.59375 -3.457031 16.59375 -4.625 L 16.59375 -49 L 28.984375 -49 Z M 15.046875 -49 C 13.273438 -48.8125 11.675781 -48.34375 10.25 -47.59375 C 8.832031 -46.851562 7.5625 -45.882812 6.4375 -44.6875 C 5.320312 -43.5 4.378906 -42.144531 3.609375 -40.625 C 2.835938 -39.113281 2.21875 -37.492188 1.75 -35.765625 L 1.75 -49 Z M 43.8125 -49 L 43.8125 -35.765625 C 43.394531 -37.492188 42.789062 -39.113281 42 -40.625 C 41.207031 -42.144531 40.257812 -43.5 39.15625 -44.6875 C 38.0625 -45.882812 36.789062 -46.851562 35.34375 -47.59375 C 33.90625 -48.34375 32.320312 -48.8125 30.59375 -49 Z M 43.8125 -49 "/></g></g></g><g fill="#e4e2dd" fill-opacity="1"><g transform="translate(168.799152, 113.092053)"><g><path d="M 15.125 -3.84375 C 15.125 -3.007812 15.398438 -2.191406 15.953125 -1.390625 C 16.515625 -0.597656 17.191406 -0.132812 17.984375 0 L 1.75 0 C 2.539062 -0.132812 3.21875 -0.597656 3.78125 -1.390625 C 4.34375 -2.191406 4.625 -3.007812 4.625 -3.84375 L 4.625 -43.40625 C 4.625 -44.238281 4.34375 -45.050781 3.78125 -45.84375 C 3.21875 -46.644531 2.539062 -47.113281 1.75 -47.25 L 13.71875 -49 L 13.9375 -49 C 14.300781 -49 14.585938 -48.878906 14.796875 -48.640625 C 15.015625 -48.410156 15.125 -48.109375 15.125 -47.734375 Z M 33.53125 -3.84375 C 33.53125 -3.007812 33.804688 -2.191406 34.359375 -1.390625 C 34.921875 -0.597656 35.601562 -0.132812 36.40625 0 L 20.15625 0 C 20.945312 -0.132812 21.625 -0.597656 22.1875 -1.390625 C 22.75 -2.191406 23.03125 -3.007812 23.03125 -3.84375 L 23.03125 -24.5 C 23.03125 -25.382812 23.21875 -26.128906 23.59375 -26.734375 C 23.96875 -27.347656 24.382812 -27.898438 24.84375 -28.390625 C 25.3125 -28.878906 25.734375 -29.367188 26.109375 -29.859375 C 26.484375 -30.347656 26.671875 -30.914062 26.671875 -31.5625 C 26.671875 -32.363281 26.226562 -33.054688 25.34375 -33.640625 C 24.457031 -34.222656 23.3125 -34.515625 21.90625 -34.515625 C 20.414062 -34.515625 19.085938 -34.328125 17.921875 -33.953125 C 16.753906 -33.578125 15.9375 -33.273438 15.46875 -33.046875 C 17.101562 -33.835938 18.957031 -34.429688 21.03125 -34.828125 C 23.113281 -35.222656 25.085938 -35.207031 26.953125 -34.78125 C 28.816406 -34.363281 30.378906 -33.429688 31.640625 -31.984375 C 32.898438 -30.535156 33.53125 -28.367188 33.53125 -25.484375 Z M 33.53125 -3.84375 "/></g></g></g><g fill="#e4e2dd" fill-opacity="1"><g transform="translate(202.047069, 113.092053)"><g><path d="M 23.796875 -4.125 C 25.148438 -4.125 26.476562 -4.460938 27.78125 -5.140625 C 29.09375 -5.816406 30.238281 -6.765625 31.21875 -7.984375 C 29.820312 -5.460938 27.929688 -3.441406 25.546875 -1.921875 C 23.171875 -0.410156 20.554688 0.34375 17.703125 0.34375 C 15.515625 0.34375 13.453125 -0.117188 11.515625 -1.046875 C 9.578125 -1.984375 7.882812 -3.242188 6.4375 -4.828125 C 4.988281 -6.410156 3.84375 -8.273438 3 -10.421875 C 2.164062 -12.578125 1.75 -14.890625 1.75 -17.359375 C 1.75 -19.785156 2.164062 -22.082031 3 -24.25 C 3.84375 -26.425781 4.988281 -28.304688 6.4375 -29.890625 C 7.882812 -31.472656 9.578125 -32.726562 11.515625 -33.65625 C 13.453125 -34.59375 15.515625 -35.0625 17.703125 -35.0625 C 17.242188 -34.976562 16.695312 -34.550781 16.0625 -33.78125 C 15.4375 -33.007812 14.84375 -31.992188 14.28125 -30.734375 C 13.71875 -29.472656 13.238281 -28.015625 12.84375 -26.359375 C 12.445312 -24.703125 12.25 -22.9375 12.25 -21.0625 C 12.25 -18.726562 12.550781 -16.535156 13.15625 -14.484375 C 13.757812 -12.429688 14.585938 -10.632812 15.640625 -9.09375 C 16.691406 -7.5625 17.914062 -6.347656 19.3125 -5.453125 C 20.71875 -4.566406 22.210938 -4.125 23.796875 -4.125 Z M 22.953125 -23.09375 C 22.953125 -24.5 22.835938 -25.863281 22.609375 -27.1875 C 22.378906 -28.519531 22.078125 -29.722656 21.703125 -30.796875 C 21.328125 -31.867188 20.867188 -32.78125 20.328125 -33.53125 C 19.796875 -34.28125 19.226562 -34.789062 18.625 -35.0625 C 20.394531 -34.925781 22.050781 -34.484375 23.59375 -33.734375 C 25.132812 -32.992188 26.507812 -32.015625 27.71875 -30.796875 C 28.9375 -29.585938 29.953125 -28.164062 30.765625 -26.53125 C 31.578125 -24.894531 32.171875 -23.117188 32.546875 -21.203125 L 21 -21.203125 C 21.507812 -21.203125 21.960938 -21.390625 22.359375 -21.765625 C 22.753906 -22.140625 22.953125 -22.582031 22.953125 -23.09375 Z M 22.953125 -23.09375 "/></g></g></g><g fill="#e4e2dd" fill-opacity="1"><g transform="translate(84.069144, 169.34205)"><g><path d="M 13.9375 -34.375 C 14.726562 -34.375 15.125 -33.976562 15.125 -33.1875 L 15.125 15.46875 C 15.125 15.882812 14.984375 16.234375 14.703125 16.515625 C 14.421875 16.796875 14.070312 16.9375 13.65625 16.9375 L 1.75 16.9375 C 2.539062 16.800781 3.21875 16.347656 3.78125 15.578125 C 4.34375 14.804688 4.625 13.976562 4.625 13.09375 L 4.625 -28.765625 C 4.625 -29.648438 4.34375 -30.476562 3.78125 -31.25 C 3.21875 -32.019531 2.539062 -32.476562 1.75 -32.625 L 13.71875 -34.375 Z M 20.15625 -34.375 C 22.070312 -34.5625 23.984375 -34.316406 25.890625 -33.640625 C 27.804688 -32.960938 29.519531 -31.898438 31.03125 -30.453125 C 32.550781 -29.003906 33.789062 -27.226562 34.75 -25.125 C 35.707031 -23.03125 36.1875 -20.675781 36.1875 -18.0625 C 36.1875 -15.488281 35.820312 -13.210938 35.09375 -11.234375 C 34.375 -9.253906 33.421875 -7.523438 32.234375 -6.046875 C 31.046875 -4.578125 29.703125 -3.328125 28.203125 -2.296875 C 26.710938 -1.273438 25.195312 -0.40625 23.65625 0.3125 C 22.113281 1.039062 20.617188 1.632812 19.171875 2.09375 C 17.734375 2.5625 16.5 2.960938 15.46875 3.296875 C 16.6875 2.640625 17.910156 1.773438 19.140625 0.703125 C 20.378906 -0.367188 21.488281 -1.722656 22.46875 -3.359375 C 23.445312 -4.992188 24.25 -6.953125 24.875 -9.234375 C 25.507812 -11.523438 25.828125 -14.257812 25.828125 -17.4375 C 25.828125 -19.582031 25.601562 -21.617188 25.15625 -23.546875 C 24.71875 -25.484375 24.125 -27.1875 23.375 -28.65625 C 22.632812 -30.132812 21.757812 -31.300781 20.75 -32.15625 C 19.75 -33.019531 18.664062 -33.453125 17.5 -33.453125 C 16.75 -33.453125 16.070312 -33.316406 15.46875 -33.046875 C 16.726562 -33.691406 18.289062 -34.132812 20.15625 -34.375 Z M 20.15625 -34.375 "/></g></g></g><g fill="#e4e2dd" fill-opacity="1"><g transform="translate(117.107073, 169.34205)"><g><path d="M 23.796875 -4.125 C 25.148438 -4.125 26.476562 -4.460938 27.78125 -5.140625 C 29.09375 -5.816406 30.238281 -6.765625 31.21875 -7.984375 C 29.820312 -5.460938 27.929688 -3.441406 25.546875 -1.921875 C 23.171875 -0.410156 20.554688 0.34375 17.703125 0.34375 C 15.515625 0.34375 13.453125 -0.117188 11.515625 -1.046875 C 9.578125 -1.984375 7.882812 -3.242188 6.4375 -4.828125 C 4.988281 -6.410156 3.84375 -8.273438 3 -10.421875 C 2.164062 -12.578125 1.75 -14.890625 1.75 -17.359375 C 1.75 -19.785156 2.164062 -22.082031 3 -24.25 C 3.84375 -26.425781 4.988281 -28.304688 6.4375 -29.890625 C 7.882812 -31.472656 9.578125 -32.726562 11.515625 -33.65625 C 13.453125 -34.59375 15.515625 -35.0625 17.703125 -35.0625 C 17.242188 -34.976562 16.695312 -34.550781 16.0625 -33.78125 C 15.4375 -33.007812 14.84375 -31.992188 14.28125 -30.734375 C 13.71875 -29.472656 13.238281 -28.015625 12.84375 -26.359375 C 12.445312 -24.703125 12.25 -22.9375 12.25 -21.0625 C 12.25 -18.726562 12.550781 -16.535156 13.15625 -14.484375 C 13.757812 -12.429688 14.585938 -10.632812 15.640625 -9.09375 C 16.691406 -7.5625 17.914062 -6.347656 19.3125 -5.453125 C 20.71875 -4.566406 22.210938 -4.125 23.796875 -4.125 Z M 22.953125 -23.09375 C 22.953125 -24.5 22.835938 -25.863281 22.609375 -27.1875 C 22.378906 -28.519531 22.078125 -29.722656 21.703125 -30.796875 C 21.328125 -31.867188 20.867188 -32.78125 20.328125 -33.53125 C 19.796875 -34.28125 19.226562 -34.789062 18.625 -35.0625 C 20.394531 -34.925781 22.050781 -34.484375 23.59375 -33.734375 C 25.132812 -32.992188 26.507812 -32.015625 27.71875 -30.796875 C 28.9375 -29.585938 29.953125 -28.164062 30.765625 -26.53125 C 31.578125 -24.894531 32.171875 -23.117188 32.546875 -21.203125 L 21 -21.203125 C 21.507812 -21.203125 21.960938 -21.390625 22.359375 -21.765625 C 22.753906 -22.140625 22.953125 -22.582031 22.953125 -23.09375 Z M 22.953125 -23.09375 "/></g></g></g><g fill="#e4e2dd" fill-opacity="1"><g transform="translate(146.505198, 169.34205)"><g><path d="M 24.078125 -35.765625 C 25.566406 -35.671875 26.847656 -35.125 27.921875 -34.125 C 29.003906 -33.125 29.546875 -31.875 29.546875 -30.375 C 29.546875 -28.882812 29.003906 -27.601562 27.921875 -26.53125 C 26.847656 -25.457031 25.566406 -24.921875 24.078125 -24.921875 C 23.328125 -24.921875 22.625 -25.0625 21.96875 -25.34375 C 21.320312 -25.625 20.753906 -26.007812 20.265625 -26.5 C 19.773438 -26.988281 19.390625 -27.570312 19.109375 -28.25 C 18.828125 -28.925781 18.6875 -29.632812 18.6875 -30.375 C 18.6875 -30.65625 18.734375 -31.03125 18.828125 -31.5 C 19.066406 -32.4375 18.878906 -33.078125 18.265625 -33.421875 C 17.660156 -33.773438 16.679688 -33.625 15.328125 -32.96875 C 15.929688 -33.289062 16.609375 -33.613281 17.359375 -33.9375 C 18.109375 -34.269531 18.867188 -34.578125 19.640625 -34.859375 C 20.410156 -35.140625 21.175781 -35.375 21.9375 -35.5625 C 22.707031 -35.75 23.421875 -35.816406 24.078125 -35.765625 Z M 15.125 -3.84375 C 15.125 -3.007812 15.398438 -2.191406 15.953125 -1.390625 C 16.515625 -0.597656 17.191406 -0.132812 17.984375 0 L 1.75 0 C 2.539062 -0.132812 3.21875 -0.597656 3.78125 -1.390625 C 4.34375 -2.191406 4.625 -3.007812 4.625 -3.84375 L 4.625 -28.765625 C 4.625 -29.648438 4.34375 -30.476562 3.78125 -31.25 C 3.21875 -32.019531 2.539062 -32.476562 1.75 -32.625 L 13.71875 -34.375 L 13.9375 -34.375 C 14.726562 -34.375 15.125 -33.976562 15.125 -33.1875 Z M 15.125 -3.84375 "/></g></g></g><g fill="#e4e2dd" fill-opacity="1"><g transform="translate(172.893492, 169.34205)"><g><path d="M 15.125 -37.65625 L 15.125 -3.84375 C 15.125 -3.007812 15.398438 -2.191406 15.953125 -1.390625 C 16.515625 -0.597656 17.191406 -0.132812 17.984375 0 L 1.75 0 C 2.539062 -0.132812 3.21875 -0.597656 3.78125 -1.390625 C 4.34375 -2.191406 4.625 -3.007812 4.625 -3.84375 L 4.625 -39.125 C 4.625 -40.101562 4.878906 -41.09375 5.390625 -42.09375 C 5.898438 -43.101562 6.609375 -44.0625 7.515625 -44.96875 C 8.429688 -45.882812 9.484375 -46.679688 10.671875 -47.359375 C 11.859375 -48.035156 13.15625 -48.515625 14.5625 -48.796875 C 13.71875 -48.554688 12.957031 -48.203125 12.28125 -47.734375 C 11.601562 -47.273438 11.265625 -46.644531 11.265625 -45.84375 C 11.265625 -45.144531 11.453125 -44.523438 11.828125 -43.984375 C 12.203125 -43.453125 12.625 -42.941406 13.09375 -42.453125 C 13.5625 -41.960938 13.992188 -41.460938 14.390625 -40.953125 C 14.785156 -40.441406 15.03125 -39.832031 15.125 -39.125 Z M 19.109375 -48.796875 C 20.648438 -48.554688 22.109375 -48.109375 23.484375 -47.453125 C 24.859375 -46.804688 26.054688 -46.023438 27.078125 -45.109375 C 28.109375 -44.203125 28.925781 -43.222656 29.53125 -42.171875 C 30.144531 -41.117188 30.453125 -40.101562 30.453125 -39.125 C 30.453125 -37.632812 29.914062 -36.351562 28.84375 -35.28125 C 27.769531 -34.207031 26.484375 -33.671875 24.984375 -33.671875 C 23.492188 -33.671875 22.222656 -34.207031 21.171875 -35.28125 C 20.117188 -36.351562 19.59375 -37.632812 19.59375 -39.125 C 19.59375 -39.96875 19.742188 -40.679688 20.046875 -41.265625 C 20.359375 -41.847656 20.710938 -42.375 21.109375 -42.84375 C 21.503906 -43.3125 21.851562 -43.765625 22.15625 -44.203125 C 22.457031 -44.648438 22.609375 -45.195312 22.609375 -45.84375 C 22.609375 -46.644531 22.242188 -47.300781 21.515625 -47.8125 C 20.796875 -48.320312 19.992188 -48.648438 19.109375 -48.796875 Z M 15.125 -24.5 C 15.863281 -24.5 16.582031 -24.648438 17.28125 -24.953125 C 17.988281 -25.253906 18.617188 -25.660156 19.171875 -26.171875 C 19.734375 -26.691406 20.175781 -27.289062 20.5 -27.96875 C 20.832031 -28.644531 21 -29.351562 21 -30.09375 L 21 -18.828125 C 21 -19.578125 20.832031 -20.289062 20.5 -20.96875 C 20.175781 -21.644531 19.734375 -22.25 19.171875 -22.78125 C 18.617188 -23.320312 17.988281 -23.742188 17.28125 -24.046875 C 16.582031 -24.347656 15.863281 -24.5 15.125 -24.5 Z M 15.125 -24.5 "/></g></g></g><g fill="#e4e2dd" fill-opacity="1"><g transform="translate(200.191729, 169.34205)"><g><path d="M 23.796875 -4.125 C 25.148438 -4.125 26.476562 -4.460938 27.78125 -5.140625 C 29.09375 -5.816406 30.238281 -6.765625 31.21875 -7.984375 C 29.820312 -5.460938 27.929688 -3.441406 25.546875 -1.921875 C 23.171875 -0.410156 20.554688 0.34375 17.703125 0.34375 C 15.515625 0.34375 13.453125 -0.117188 11.515625 -1.046875 C 9.578125 -1.984375 7.882812 -3.242188 6.4375 -4.828125 C 4.988281 -6.410156 3.84375 -8.273438 3 -10.421875 C 2.164062 -12.578125 1.75 -14.890625 1.75 -17.359375 C 1.75 -19.785156 2.164062 -22.082031 3 -24.25 C 3.84375 -26.425781 4.988281 -28.304688 6.4375 -29.890625 C 7.882812 -31.472656 9.578125 -32.726562 11.515625 -33.65625 C 13.453125 -34.59375 15.515625 -35.0625 17.703125 -35.0625 C 17.242188 -34.976562 16.695312 -34.550781 16.0625 -33.78125 C 15.4375 -33.007812 14.84375 -31.992188 14.28125 -30.734375 C 13.71875 -29.472656 13.238281 -28.015625 12.84375 -26.359375 C 12.445312 -24.703125 12.25 -22.9375 12.25 -21.0625 C 12.25 -18.726562 12.550781 -16.535156 13.15625 -14.484375 C 13.757812 -12.429688 14.585938 -10.632812 15.640625 -9.09375 C 16.691406 -7.5625 17.914062 -6.347656 19.3125 -5.453125 C 20.71875 -4.566406 22.210938 -4.125 23.796875 -4.125 Z M 22.953125 -23.09375 C 22.953125 -24.5 22.835938 -25.863281 22.609375 -27.1875 C 22.378906 -28.519531 22.078125 -29.722656 21.703125 -30.796875 C 21.328125 -31.867188 20.867188 -32.78125 20.328125 -33.53125 C 19.796875 -34.28125 19.226562 -34.789062 18.625 -35.0625 C 20.394531 -34.925781 22.050781 -34.484375 23.59375 -33.734375 C 25.132812 -32.992188 26.507812 -32.015625 27.71875 -30.796875 C 28.9375 -29.585938 29.953125 -28.164062 30.765625 -26.53125 C 31.578125 -24.894531 32.171875 -23.117188 32.546875 -21.203125 L 21 -21.203125 C 21.507812 -21.203125 21.960938 -21.390625 22.359375 -21.765625 C 22.753906 -22.140625 22.953125 -22.582031 22.953125 -23.09375 Z M 22.953125 -23.09375 "/></g></g></g><g fill="#e4e2dd" fill-opacity="1"><g transform="translate(229.589849, 169.34205)"><g><path d="M 17.703125 -35.0625 C 17.242188 -34.976562 16.695312 -34.550781 16.0625 -33.78125 C 15.4375 -33.007812 14.84375 -31.992188 14.28125 -30.734375 C 13.71875 -29.472656 13.238281 -28.015625 12.84375 -26.359375 C 12.445312 -24.703125 12.25 -22.9375 12.25 -21.0625 C 12.25 -18.726562 12.550781 -16.535156 13.15625 -14.484375 C 13.757812 -12.429688 14.585938 -10.632812 15.640625 -9.09375 C 16.691406 -7.5625 17.914062 -6.347656 19.3125 -5.453125 C 20.71875 -4.566406 22.210938 -4.125 23.796875 -4.125 C 25.148438 -4.125 26.476562 -4.460938 27.78125 -5.140625 C 29.09375 -5.816406 30.238281 -6.765625 31.21875 -7.984375 C 29.820312 -5.460938 27.929688 -3.441406 25.546875 -1.921875 C 23.171875 -0.410156 20.554688 0.34375 17.703125 0.34375 C 15.515625 0.34375 13.453125 -0.117188 11.515625 -1.046875 C 9.578125 -1.984375 7.882812 -3.242188 6.4375 -4.828125 C 4.988281 -6.410156 3.84375 -8.273438 3 -10.421875 C 2.164062 -12.578125 1.75 -14.890625 1.75 -17.359375 C 1.75 -19.785156 2.164062 -22.082031 3 -24.25 C 3.84375 -26.425781 4.988281 -28.304688 6.4375 -29.890625 C 7.882812 -31.472656 9.578125 -32.726562 11.515625 -33.65625 C 13.453125 -34.59375 15.515625 -35.0625 17.703125 -35.0625 Z M 18.90625 -35.0625 C 20.582031 -34.925781 22.164062 -34.53125 23.65625 -33.875 C 25.15625 -33.226562 26.460938 -32.4375 27.578125 -31.5 C 28.703125 -30.5625 29.585938 -29.53125 30.234375 -28.40625 C 30.890625 -27.289062 31.21875 -26.222656 31.21875 -25.203125 C 31.21875 -23.703125 30.679688 -22.425781 29.609375 -21.375 C 28.535156 -20.332031 27.253906 -19.8125 25.765625 -19.8125 C 24.265625 -19.8125 22.988281 -20.332031 21.9375 -21.375 C 20.894531 -22.425781 20.375 -23.703125 20.375 -25.203125 C 20.375 -26.648438 20.863281 -27.910156 21.84375 -28.984375 C 22.3125 -29.453125 22.679688 -29.929688 22.953125 -30.421875 C 23.234375 -30.910156 23.375 -31.410156 23.375 -31.921875 C 23.375 -32.390625 23.234375 -32.820312 22.953125 -33.21875 C 22.679688 -33.613281 22.320312 -33.9375 21.875 -34.1875 C 21.425781 -34.445312 20.929688 -34.644531 20.390625 -34.78125 C 19.859375 -34.925781 19.363281 -35.019531 18.90625 -35.0625 Z M 18.90625 -35.0625 "/></g></g></g><g fill="#e4e2dd" fill-opacity="1"><g transform="translate(257.658038, 169.34205)"><g><path d="M 15.1875 -30.375 L 15.1875 -6.296875 C 15.1875 -5.222656 15.546875 -4.320312 16.265625 -3.59375 C 16.992188 -2.875 17.875 -2.515625 18.90625 -2.515625 C 19.601562 -2.515625 20.253906 -2.703125 20.859375 -3.078125 C 20.441406 -2.753906 19.953125 -2.394531 19.390625 -2 C 18.828125 -1.601562 18.195312 -1.226562 17.5 -0.875 C 16.800781 -0.519531 16.03125 -0.226562 15.1875 0 C 14.351562 0.226562 13.441406 0.34375 12.453125 0.34375 C 11.378906 0.34375 10.363281 0.132812 9.40625 -0.28125 C 8.457031 -0.695312 7.628906 -1.265625 6.921875 -1.984375 C 6.222656 -2.710938 5.664062 -3.554688 5.25 -4.515625 C 4.832031 -5.472656 4.625 -6.488281 4.625 -7.5625 L 4.625 -30.59375 C 4.625 -31.425781 4.351562 -32.226562 3.8125 -33 C 3.28125 -33.769531 2.59375 -34.25 1.75 -34.4375 C 4.40625 -34.625 6.875 -35.265625 9.15625 -36.359375 C 11.445312 -37.460938 13.457031 -38.898438 15.1875 -40.671875 L 15.1875 -34.4375 L 17.984375 -34.4375 C 17.191406 -34.25 16.523438 -33.769531 15.984375 -33 C 15.453125 -32.226562 15.1875 -31.425781 15.1875 -30.59375 Z M 15.1875 -30.375 "/></g></g></g><g fill="#e4e2dd" fill-opacity="1"><g transform="translate(124.287891, 225.592046)"><g><path d="M 15.125 -20.4375 L 15.125 -3.84375 C 15.125 -3.007812 15.398438 -2.191406 15.953125 -1.390625 C 16.515625 -0.597656 17.191406 -0.132812 17.984375 0 L 1.75 0 C 2.539062 -0.132812 3.21875 -0.597656 3.78125 -1.390625 C 4.34375 -2.191406 4.625 -3.007812 4.625 -3.84375 L 4.625 -28.765625 C 4.625 -29.648438 4.34375 -30.476562 3.78125 -31.25 C 3.21875 -32.019531 2.539062 -32.476562 1.75 -32.625 L 13.71875 -34.375 L 13.9375 -34.375 C 14.726562 -34.375 15.125 -33.976562 15.125 -33.1875 Z M 33.53125 -3.84375 C 33.53125 -3.007812 33.804688 -2.191406 34.359375 -1.390625 C 34.921875 -0.597656 35.601562 -0.132812 36.40625 0 L 20.15625 0 C 20.945312 -0.132812 21.625 -0.597656 22.1875 -1.390625 C 22.75 -2.191406 23.03125 -3.007812 23.03125 -3.84375 L 23.03125 -24.5 C 23.03125 -25.382812 23.21875 -26.128906 23.59375 -26.734375 C 23.96875 -27.347656 24.382812 -27.898438 24.84375 -28.390625 C 25.3125 -28.878906 25.734375 -29.367188 26.109375 -29.859375 C 26.484375 -30.347656 26.671875 -30.914062 26.671875 -31.5625 C 26.671875 -32.363281 26.226562 -33.054688 25.34375 -33.640625 C 24.457031 -34.222656 23.3125 -34.515625 21.90625 -34.515625 C 20.414062 -34.515625 19.085938 -34.328125 17.921875 -33.953125 C 16.753906 -33.578125 15.9375 -33.273438 15.46875 -33.046875 C 17.101562 -33.835938 18.957031 -34.429688 21.03125 -34.828125 C 23.113281 -35.222656 25.085938 -35.207031 26.953125 -34.78125 C 28.816406 -34.363281 30.378906 -33.429688 31.640625 -31.984375 C 32.898438 -30.535156 33.53125 -28.367188 33.53125 -25.484375 Z M 33.53125 -3.84375 "/></g></g></g><g fill="#e4e2dd" fill-opacity="1"><g transform="translate(157.535808, 225.592046)"><g><path d="M 18.265625 -35.0625 C 20.410156 -34.976562 22.414062 -34.457031 24.28125 -33.5 C 26.15625 -32.539062 27.789062 -31.265625 29.1875 -29.671875 C 30.59375 -28.085938 31.691406 -26.234375 32.484375 -24.109375 C 33.273438 -21.992188 33.671875 -19.742188 33.671875 -17.359375 C 33.671875 -14.984375 33.273438 -12.734375 32.484375 -10.609375 C 31.691406 -8.484375 30.59375 -6.625 29.1875 -5.03125 C 27.789062 -3.445312 26.15625 -2.175781 24.28125 -1.21875 C 22.414062 -0.269531 20.410156 0.25 18.265625 0.34375 C 19.859375 0.0195312 21.0625 -1.644531 21.875 -4.65625 C 22.6875 -7.664062 23.09375 -11.898438 23.09375 -17.359375 C 23.09375 -22.816406 22.6875 -27.050781 21.875 -30.0625 C 21.0625 -33.070312 19.859375 -34.738281 18.265625 -35.0625 Z M 17.078125 -35.0625 C 15.535156 -34.738281 14.34375 -33.070312 13.5 -30.0625 C 12.664062 -27.050781 12.25 -22.816406 12.25 -17.359375 C 12.25 -11.898438 12.664062 -7.664062 13.5 -4.65625 C 14.34375 -1.644531 15.535156 0.0195312 17.078125 0.34375 C 14.929688 0.25 12.925781 -0.269531 11.0625 -1.21875 C 9.195312 -2.175781 7.570312 -3.445312 6.1875 -5.03125 C 4.8125 -6.625 3.726562 -8.484375 2.9375 -10.609375 C 2.144531 -12.734375 1.75 -14.984375 1.75 -17.359375 C 1.75 -19.742188 2.144531 -21.992188 2.9375 -24.109375 C 3.726562 -26.234375 4.8125 -28.085938 6.1875 -29.671875 C 7.570312 -31.265625 9.195312 -32.539062 11.0625 -33.5 C 12.925781 -34.457031 14.929688 -34.976562 17.078125 -35.0625 Z M 17.078125 -35.0625 "/></g></g></g><g fill="#e4e2dd" fill-opacity="1"><g transform="translate(188.053875, 225.592046)"><g><path d="M 15.1875 -30.375 L 15.1875 -6.296875 C 15.1875 -5.222656 15.546875 -4.320312 16.265625 -3.59375 C 16.992188 -2.875 17.875 -2.515625 18.90625 -2.515625 C 19.601562 -2.515625 20.253906 -2.703125 20.859375 -3.078125 C 20.441406 -2.753906 19.953125 -2.394531 19.390625 -2 C 18.828125 -1.601562 18.195312 -1.226562 17.5 -0.875 C 16.800781 -0.519531 16.03125 -0.226562 15.1875 0 C 14.351562 0.226562 13.441406 0.34375 12.453125 0.34375 C 11.378906 0.34375 10.363281 0.132812 9.40625 -0.28125 C 8.457031 -0.695312 7.628906 -1.265625 6.921875 -1.984375 C 6.222656 -2.710938 5.664062 -3.554688 5.25 -4.515625 C 4.832031 -5.472656 4.625 -6.488281 4.625 -7.5625 L 4.625 -30.59375 C 4.625 -31.425781 4.351562 -32.226562 3.8125 -33 C 3.28125 -33.769531 2.59375 -34.25 1.75 -34.4375 C 4.40625 -34.625 6.875 -35.265625 9.15625 -36.359375 C 11.445312 -37.460938 13.457031 -38.898438 15.1875 -40.671875 L 15.1875 -34.4375 L 17.984375 -34.4375 C 17.191406 -34.25 16.523438 -33.769531 15.984375 -33 C 15.453125 -32.226562 15.1875 -31.425781 15.1875 -30.59375 Z M 15.1875 -30.375 "/></g></g></g><g fill="#e4e2dd" fill-opacity="1"><g transform="translate(205.902634, 225.592046)"><g><path d="M 23.796875 -4.125 C 25.148438 -4.125 26.476562 -4.460938 27.78125 -5.140625 C 29.09375 -5.816406 30.238281 -6.765625 31.21875 -7.984375 C 29.820312 -5.460938 27.929688 -3.441406 25.546875 -1.921875 C 23.171875 -0.410156 20.554688 0.34375 17.703125 0.34375 C 15.515625 0.34375 13.453125 -0.117188 11.515625 -1.046875 C 9.578125 -1.984375 7.882812 -3.242188 6.4375 -4.828125 C 4.988281 -6.410156 3.84375 -8.273438 3 -10.421875 C 2.164062 -12.578125 1.75 -14.890625 1.75 -17.359375 C 1.75 -19.785156 2.164062 -22.082031 3 -24.25 C 3.84375 -26.425781 4.988281 -28.304688 6.4375 -29.890625 C 7.882812 -31.472656 9.578125 -32.726562 11.515625 -33.65625 C 13.453125 -34.59375 15.515625 -35.0625 17.703125 -35.0625 C 17.242188 -34.976562 16.695312 -34.550781 16.0625 -33.78125 C 15.4375 -33.007812 14.84375 -31.992188 14.28125 -30.734375 C 13.71875 -29.472656 13.238281 -28.015625 12.84375 -26.359375 C 12.445312 -24.703125 12.25 -22.9375 12.25 -21.0625 C 12.25 -18.726562 12.550781 -16.535156 13.15625 -14.484375 C 13.757812 -12.429688 14.585938 -10.632812 15.640625 -9.09375 C 16.691406 -7.5625 17.914062 -6.347656 19.3125 -5.453125 C 20.71875 -4.566406 22.210938 -4.125 23.796875 -4.125 Z M 22.953125 -23.09375 C 22.953125 -24.5 22.835938 -25.863281 22.609375 -27.1875 C 22.378906 -28.519531 22.078125 -29.722656 21.703125 -30.796875 C 21.328125 -31.867188 20.867188 -32.78125 20.328125 -33.53125 C 19.796875 -34.28125 19.226562 -34.789062 18.625 -35.0625 C 20.394531 -34.925781 22.050781 -34.484375 23.59375 -33.734375 C 25.132812 -32.992188 26.507812 -32.015625 27.71875 -30.796875 C 28.9375 -29.585938 29.953125 -28.164062 30.765625 -26.53125 C 31.578125 -24.894531 32.171875 -23.117188 32.546875 -21.203125 L 21 -21.203125 C 21.507812 -21.203125 21.960938 -21.390625 22.359375 -21.765625 C 22.753906 -22.140625 22.953125 -22.582031 22.953125 -23.09375 Z M 22.953125 -23.09375 "/></g></g></g><g clip-path="url(#bf8eb45ff0)"><path fill="#e4e2dd" d="M 281.929688 206.152344 L 282.980469 201.265625 L 287.867188 200.214844 L 282.980469 199.164062 L 281.929688 194.28125 L 280.878906 199.164062 L 275.996094 200.214844 L 280.878906 201.265625 Z M 281.929688 206.152344 " fill-opacity="1" fill-rule="nonzero"/></g><g clip-path="url(#40f4c40266)"><path fill="#e4e2dd" d="M 270.523438 229.558594 C 270.148438 229.363281 269.753906 229.21875 269.324219 229.121094 C 268.902344 229.027344 268.476562 228.976562 268.050781 228.976562 C 267.433594 228.976562 266.832031 229.078125 266.238281 229.277344 C 265.644531 229.476562 265.117188 229.765625 264.65625 230.148438 C 264.191406 230.527344 263.816406 230.984375 263.535156 231.515625 C 263.367188 231.832031 263.257812 232.171875 263.1875 232.53125 C 258.132812 238.449219 244.828125 250.433594 209.109375 237.433594 C 170.570312 223.410156 138.191406 236.257812 137.867188 236.386719 L 138.503906 237.945312 C 138.820312 237.816406 170.628906 225.222656 208.535156 239.015625 C 219.289062 242.929688 228.898438 244.890625 237.261719 244.890625 C 241.898438 244.890625 246.15625 244.289062 250.011719 243.078125 C 256.667969 240.992188 260.859375 237.480469 263.402344 234.796875 C 263.441406 234.894531 263.484375 234.992188 263.535156 235.089844 C 263.816406 235.621094 264.191406 236.078125 264.65625 236.460938 C 265.117188 236.839844 265.644531 237.128906 266.238281 237.328125 C 266.828125 237.527344 267.433594 237.628906 268.050781 237.628906 C 268.667969 237.628906 269.273438 237.527344 269.867188 237.328125 C 270.460938 237.128906 270.988281 236.839844 271.449219 236.460938 C 271.914062 236.078125 272.285156 235.621094 272.570312 235.089844 C 272.851562 234.554688 272.996094 233.960938 272.996094 233.304688 L 272.996094 217.277344 L 285.351562 214.1875 L 285.351562 227.085938 C 284.976562 226.894531 284.578125 226.746094 284.152344 226.652344 C 283.726562 226.554688 283.304688 226.507812 282.878906 226.507812 C 282.261719 226.507812 281.65625 226.605469 281.066406 226.804688 C 280.472656 227.003906 279.945312 227.292969 279.480469 227.675781 C 279.019531 228.054688 278.644531 228.511719 278.363281 229.046875 C 278.078125 229.578125 277.933594 230.175781 277.933594 230.832031 C 277.933594 231.488281 278.078125 232.085938 278.363281 232.617188 C 278.644531 233.152344 279.019531 233.609375 279.480469 233.988281 C 279.945312 234.367188 280.472656 234.65625 281.066406 234.859375 C 281.65625 235.058594 282.261719 235.15625 282.878906 235.15625 C 283.496094 235.15625 284.101562 235.058594 284.695312 234.859375 C 285.285156 234.65625 285.8125 234.367188 286.277344 233.988281 C 286.738281 233.609375 287.113281 233.152344 287.398438 232.617188 C 287.679688 232.082031 287.820312 231.488281 287.820312 230.832031 L 287.820312 211.023438 L 270.523438 215.347656 Z M 270.28125 234.113281 C 270.121094 234.347656 269.917969 234.539062 269.675781 234.691406 C 269.429688 234.847656 269.164062 234.964844 268.875 235.039062 C 268.585938 235.117188 268.3125 235.15625 268.050781 235.15625 C 267.792969 235.15625 267.519531 235.117188 267.230469 235.039062 C 266.941406 234.964844 266.675781 234.847656 266.429688 234.691406 C 266.1875 234.539062 265.984375 234.347656 265.824219 234.113281 C 265.664062 233.882812 265.582031 233.613281 265.582031 233.304688 C 265.582031 232.992188 265.664062 232.722656 265.824219 232.492188 C 265.984375 232.261719 266.1875 232.066406 266.429688 231.914062 C 266.675781 231.757812 266.941406 231.640625 267.230469 231.566406 C 267.519531 231.488281 267.792969 231.449219 268.050781 231.449219 C 268.3125 231.449219 268.585938 231.488281 268.875 231.566406 C 269.164062 231.640625 269.429688 231.757812 269.675781 231.914062 C 269.917969 232.066406 270.121094 232.257812 270.28125 232.492188 C 270.441406 232.722656 270.523438 232.992188 270.523438 233.304688 C 270.523438 233.613281 270.441406 233.882812 270.28125 234.113281 Z M 285.109375 231.644531 C 284.949219 231.875 284.746094 232.066406 284.503906 232.222656 C 284.257812 232.375 283.988281 232.492188 283.703125 232.570312 C 283.410156 232.648438 283.136719 232.683594 282.878906 232.683594 C 282.621094 232.683594 282.351562 232.648438 282.058594 232.570312 C 281.769531 232.492188 281.503906 232.375 281.257812 232.222656 C 281.011719 232.066406 280.8125 231.875 280.648438 231.644531 C 280.488281 231.410156 280.410156 231.140625 280.410156 230.832031 C 280.410156 230.523438 280.488281 230.253906 280.648438 230.019531 C 280.8125 229.789062 281.015625 229.597656 281.257812 229.441406 C 281.503906 229.289062 281.769531 229.171875 282.058594 229.09375 C 282.347656 229.015625 282.621094 228.976562 282.878906 228.976562 C 283.136719 228.976562 283.410156 229.015625 283.703125 229.09375 C 283.988281 229.171875 284.257812 229.289062 284.503906 229.441406 C 284.746094 229.597656 284.949219 229.789062 285.109375 230.019531 C 285.269531 230.253906 285.351562 230.523438 285.351562 230.832031 C 285.351562 231.140625 285.269531 231.410156 285.109375 231.644531 Z M 285.109375 231.644531 " fill-opacity="1" fill-rule="nonzero"/></g><path fill="#e4e2dd" d="M 253.226562 223.417969 C 253.226562 224.074219 253.367188 224.671875 253.648438 225.203125 C 253.933594 225.738281 254.304688 226.195312 254.769531 226.574219 C 255.234375 226.953125 255.761719 227.246094 256.351562 227.445312 C 256.945312 227.644531 257.550781 227.742188 258.167969 227.742188 C 258.785156 227.742188 259.390625 227.640625 259.980469 227.445312 C 260.574219 227.246094 261.101562 226.953125 261.566406 226.574219 C 262.027344 226.195312 262.402344 225.738281 262.683594 225.203125 C 262.96875 224.667969 263.109375 224.074219 263.109375 223.417969 L 263.109375 208.53125 C 263.175781 208.597656 263.246094 208.660156 263.324219 208.726562 C 263.398438 208.789062 263.476562 208.855469 263.554688 208.917969 C 264.171875 209.417969 264.664062 210.007812 265.03125 210.683594 C 265.398438 211.359375 265.582031 212.101562 265.582031 212.914062 L 268.050781 212.914062 C 268.050781 211.703125 267.792969 210.613281 267.269531 209.640625 C 266.75 208.671875 266.039062 207.796875 265.136719 207.027344 C 264.519531 206.5 264.027344 205.90625 263.660156 205.25 C 263.292969 204.59375 263.109375 203.855469 263.109375 203.03125 L 260.636719 203.03125 L 260.636719 219.671875 C 260.265625 219.480469 259.867188 219.335938 259.441406 219.238281 C 259.015625 219.140625 258.59375 219.09375 258.167969 219.09375 C 257.550781 219.09375 256.945312 219.195312 256.351562 219.394531 C 255.761719 219.59375 255.234375 219.882812 254.769531 220.261719 C 254.304688 220.640625 253.933594 221.097656 253.648438 221.632812 C 253.367188 222.167969 253.226562 222.761719 253.226562 223.417969 Z M 255.9375 222.605469 C 256.097656 222.375 256.300781 222.183594 256.546875 222.027344 C 256.789062 221.875 257.058594 221.757812 257.347656 221.679688 C 257.636719 221.605469 257.910156 221.566406 258.167969 221.566406 C 258.425781 221.566406 258.699219 221.601562 258.988281 221.679688 C 259.277344 221.757812 259.546875 221.875 259.789062 222.027344 C 260.03125 222.183594 260.234375 222.375 260.398438 222.605469 C 260.558594 222.839844 260.636719 223.109375 260.636719 223.417969 C 260.636719 223.726562 260.558594 223.996094 260.398438 224.230469 C 260.234375 224.460938 260.03125 224.652344 259.789062 224.808594 C 259.546875 224.960938 259.277344 225.078125 258.988281 225.15625 C 258.699219 225.234375 258.425781 225.273438 258.167969 225.273438 C 257.910156 225.273438 257.636719 225.234375 257.347656 225.15625 C 257.058594 225.078125 256.789062 224.960938 256.546875 224.808594 C 256.300781 224.652344 256.097656 224.460938 255.9375 224.230469 C 255.777344 223.996094 255.695312 223.726562 255.695312 223.417969 C 255.695312 223.109375 255.777344 222.839844 255.9375 222.605469 Z M 255.9375 222.605469 " fill-opacity="1" fill-rule="nonzero"/><path fill="#e4e2dd" d="M 250.910156 206.238281 C 252.800781 206.238281 254.339844 204.699219 254.339844 202.804688 C 254.339844 200.914062 252.800781 199.375 250.910156 199.375 C 249.015625 199.375 247.476562 200.914062 247.476562 202.804688 C 247.476562 204.699219 249.015625 206.238281 250.910156 206.238281 Z M 250.910156 200.214844 C 252.335938 200.214844 253.5 201.375 253.5 202.804688 C 253.5 204.234375 252.335938 205.398438 250.910156 205.398438 C 249.480469 205.398438 248.316406 204.234375 248.316406 202.804688 C 248.316406 201.375 249.480469 200.214844 250.910156 200.214844 Z M 250.910156 200.214844 " fill-opacity="1" fill-rule="nonzero"/></svg>